PathFileType        4      (X/Y/Z)      C:\Users\pc\Desktop\IMUTRC\Sujet_04\Sujet_04_Tpose.trc         
DataRate	CameraRate	NumFrames	NumMarkers	Units	OrigDataRate	OrigDataStartFrame	OrigNumFrames
60.0	60.0	4	64	mm	60.0	131	149
Frame#	Time	pHipOrigin			pRightASI			pLeftASI			pRightCSI			pLeftCSI			pRightIschialTub			pLeftIschialTub			pSacrum			pL5SpinalProcess			pL3SpinalProcess			pT12SpinalProcess			pIJ			pT4SpinalProcess			pT8SpinalProcess			pPX			pC7SpinalProcess			pTopOfHead			pRightAuricularis			pLeftAuricularis			pBackOfHead			pRightAcromion			pLeftAcromion			pRightArmLatEpicondyle			pRightArmMedEpicondyle			pLeftArmLatEpicondyle			pLeftArmMedEpicondyle			pRightUlnarStyloid			pRightRadialStyloid			pRightOlecranon			pLeftUlnarStyloid			pLeftRadialStyloid			pLeftOlecranon			pRightTopOfHand			pRightPinky			pRightBallHand			pLeftTopOfHand			pLeftPinky			pLeftBallHand			pRightGreaterTrochanter			pRightKneeLatEpicondyle			pRightKneeMedEpicondyle			pRightPatella			pLeftGreaterTrochanter			pLeftKneeLatEpicondyle			pLeftKneeMedEpicondyle			pLeftPatella			pRightTibialTub			pRightLatMalleolus			pRightMedMalleolus			pLeftTibialTub			pLeftLatMalleolus			pLeftMedMalleolus			pRightHeelFoot			pRightFirstMetatarsal			pRightFifthMetatarsal			pRightPivotFoot			pRightHeelCenter			pRightToe			pLeftHeelFoot			pLeftFirstMetatarsal			pLeftFifthMetatarsal			pLeftPivotFoot			pLeftHeelCenter			pLeftToe			
		X1	Y1	Z1	X2	Y2	Z2	X3	Y3	Z3	X4	Y4	Z4	X5	Y5	Z5	X6	Y6	Z6	X7	Y7	Z7	X8	Y8	Z8	X9	Y9	Z9	X10	Y10	Z10	X11	Y11	Z11	X12	Y12	Z12	X13	Y13	Z13	X14	Y14	Z14	X15	Y15	Z15	X16	Y16	Z16	X17	Y17	Z17	X18	Y18	Z18	X19	Y19	Z19	X20	Y20	Z20	X21	Y21	Z21	X22	Y22	Z22	X23	Y23	Z23	X24	Y24	Z24	X25	Y25	Z25	X26	Y26	Z26	X27	Y27	Z27	X28	Y28	Z28	X29	Y29	Z29	X30	Y30	Z30	X31	Y31	Z31	X32	Y32	Z32	X33	Y33	Z33	X34	Y34	Z34	X35	Y35	Z35	X36	Y36	Z36	X37	Y37	Z37	X38	Y38	Z38	X39	Y39	Z39	X40	Y40	Z40	X41	Y41	Z41	X42	Y42	Z42	X43	Y43	Z43	X44	Y44	Z44	X45	Y45	Z45	X46	Y46	Z46	X47	Y47	Z47	X48	Y48	Z48	X49	Y49	Z49	X50	Y50	Z50	X51	Y51	Z51	X52	Y52	Z52	X53	Y53	Z53	X54	Y54	Z54	X55	Y55	Z55	X56	Y56	Z56	X57	Y57	Z57	X58	Y58	Z58	X59	Y59	Z59	X60	Y60	Z60	X61	Y61	Z61	X62	Y62	Z62	X63	Y63	Z63	X64	Y64	Z64	
131	2.167	-43.1072	1006.89416	-744.7260799999999	30.39462	1115.41337	-599.5137399999999	27.62097	1112.58193	-893.4054899999999	-18.02875	1187.35502	-626.3835099999999	-20.28234	1184.98585	-866.9979899999998	-102.68298	946.10491	-683.4167699999999	-103.78088	944.89144	-803.7240099999999	-115.27999	1029.71902	-744.3215899999999	-75.63985	1128.18373	-745.1883499999999	-63.5629	1244.90834	-745.3039199999998	-63.73626	1352.0985	-744.7838599999999	101.35394	1568.73243	-749.1754799999999	-54.77967	1552.03272	-743.2814699999999	-63.5629	1459.11532	-743.8593099999999	94.65094	1441.37549	-750.2155999999999	-47.61439	1608.14143	-741.7790699999999	28.42995	1848.0625	-740.9700899999999	34.09283	1750.58012	-676.2514999999999	13.7527	1755.95407	-811.8716199999999	-29.3545	1755.66515	-736.0006299999999	-25.71408	1591.1528	-555.1930599999998	-41.66259	1572.25728	-938.4773599999999	30.56798	1455.07041	-281.1213799999999	74.19524	1412.19434	-308.5689999999999	44.49403	1468.53418	-1210.52658	101.75843	1444.43807	-1185.27478	88.93028	1374.0566	-45.765289999999915	87.60124	1426.29375	-33.22605999999991	51.13924	1409.47847	-300.9992399999999	130.76623	1412.13655	-1446.05603	110.02161	1459.9243	-1459.23089	81.01381	1433.74794	-1191.34215	128.05036	1394.62786	180.8653500000001	120.0761	1350.65389	85.57878000000008	112.39077	1377.81259	3.929340000000084	226.34172	1446.74944	-1649.5151	208.89081	1406.18476	-1553.9974	163.53001	1427.50722	-1483.67371	-42.24044	975.5172	-569.1768999999999	-84.82758	543.05832	-592.29068	-85.80992	541.09365	-676.42485	-38.19553	540.68916	-637.65148	-40.9114	973.72588	-920.3330399999999	-90.95273	541.96042	-900.28184	-95.74884	539.88018	-816.26324	-46.4587	538.84006	-852.8408	-28.66109	500.64453000000003	-636.66914	-122.73419	95.11322000000004	-591.82841	-123.4276	93.32190000000004	-658.10718	-36.40421	499.95112000000006	-853.36086	-123.25425	93.37968000000005	-903.11327	-127.06802	91.47280000000006	-836.95007	-168.38391	5.836230000000038	-621.06734	4.16048	4.115016720200785E-14	-672.03323	9.01438	1.329040000000036	-587.55236	30.51019	-0.05777999999996128	-632.27753	-125.85455	6.876350000000039	-623.49429	121.05844	-0.5200599999999609	-637.42034	-168.49948	3.0625800000000534	-866.76685	5.48952	4.3338300000000505	-820.53929	7.91647	5.5420040722317406E-14	-905.07795	30.68355	2.138020000000053	-860.98841	-125.97012	5.200600000000053	-865.66895	121.34736	1.2134700000000527	-858.33032	
132	2.183	-43.04942	1006.83637	-744.6682899999998	30.45241	1115.41337	-599.4559499999999	27.62097	1112.58193	-893.3476999999999	-17.97097	1187.29723	-626.3257299999999	-20.28234	1184.98585	-866.9401999999999	-102.56741	946.04713	-683.3589899999998	-103.7231	944.89144	-803.6662199999998	-115.27999	1029.66124	-744.2060199999999	-75.58207	1128.12595	-745.0727899999999	-63.5629	1244.85055	-745.2461399999999	-63.79404	1352.04072	-744.7260799999999	101.18058	1568.79022	-749.1754799999999	-54.95302	1552.03272	-743.2814699999999	-63.67847	1459.05753	-743.8593099999999	94.53537	1441.37549	-750.2155999999999	-47.78775	1608.08365	-741.7790699999999	28.2566	1848.00471	-740.9700899999999	33.91948	1750.52233	-676.3092799999998	13.52156	1755.95407	-811.8716199999999	-29.52786	1755.60737	-736.0006299999999	-25.82965	1591.09502	-555.1930599999998	-41.95152	1572.1995	-938.4773599999999	30.51019	1455.01262	-281.1791699999999	74.19524	1412.19434	-308.6267799999999	44.49403	1468.64975	-1210.52658	101.75843	1444.61142	-1185.27478	88.87249	1373.88324	-45.823069999999916	87.48567	1426.12039	-33.283849999999916	51.13924	1409.47847	-300.9992399999999	130.99736	1412.36769	-1445.99825	110.25274	1460.15544	-1459.23089	80.95602	1433.92129	-1191.34215	127.877	1394.33894	180.80757000000008	119.90275	1350.36497	85.52100000000009	112.2752	1377.58145	3.8715600000000845	226.68842	1447.09615	-1649.39953	209.17973	1406.47368	-1553.88183	163.76115	1427.79614	-1483.61593	-42.12487	975.45941	-569.1191099999999	-84.7698	543.05832	-592.2329	-85.75213	541.09365	-676.36707	-38.19553	540.68916	-637.5937	-40.9114	973.72588	-920.2752599999999	-90.95273	541.96042	-900.22405	-95.69106	539.8224	-816.20545	-46.4587	538.78227	-852.78301	-28.66109	500.64453000000003	-636.66914	-122.73419	95.05543000000004	-591.82841	-123.4276	93.32190000000004	-658.10718	-36.40421	499.95112000000006	-853.30307	-123.25425	93.32190000000006	-903.11327	-127.06802	91.47280000000006	-836.95007	-168.38391	5.836230000000038	-621.06734	4.16048	4.115016720200785E-14	-672.03323	9.01438	1.271260000000036	-587.55236	30.51019	-0.11556999999996129	-632.27753	-125.85455	6.876350000000039	-623.49429	121.05844	-0.5200599999999609	-637.42034	-168.49948	3.0625800000000534	-866.76685	5.48952	4.3338300000000505	-820.53929	7.91647	5.5420040722317406E-14	-905.07795	30.68355	2.0802400000000527	-860.98841	-125.97012	5.142820000000054	-865.66895	121.34736	1.2134700000000527	-858.33032	
133	2.2	-43.04942	1006.83637	-744.6105099999999	30.51019	1115.41337	-599.3981699999999	27.62097	1112.52415	-893.3476999999999	-17.97097	1187.29723	-626.3257299999999	-20.28234	1184.92807	-866.8824199999999	-102.56741	946.04713	-683.3011999999999	-103.7231	944.83365	-803.5506599999999	-115.22221	1029.66124	-744.1482299999999	-75.58207	1128.12595	-745.0149999999999	-63.5629	1244.85055	-745.1883499999999	-63.79404	1351.98293	-744.7260799999999	101.00723	1568.79022	-749.2332699999998	-55.06859	1551.97494	-743.2814699999999	-63.73626	1459.05753	-743.8593099999999	94.47759	1441.43327	-750.1578199999999	-47.9611	1608.08365	-741.8368599999999	28.08325	1848.00471	-740.9700899999999	33.74612	1750.52233	-676.3092799999998	13.34821	1755.95407	-811.8716199999999	-29.70121	1755.60737	-736.0006299999999	-25.94522	1591.09502	-555.1930599999998	-42.12487	1572.14172	-938.4773599999999	30.45241	1455.01262	-281.1791699999999	74.13746	1412.19434	-308.6267799999999	44.49403	1468.76532	-1210.52658	101.75843	1444.78477	-1185.21699	88.75693	1373.76768	-45.88085999999991	87.3701	1425.94704	-33.283849999999916	51.08146	1409.47847	-301.0570199999999	131.17072	1412.59883	-1445.99825	110.36831	1460.32879	-1459.1731	80.95602	1434.03686	-1191.34215	127.70365	1394.05002	180.80757000000008	119.78718	1350.13383	85.46321000000009	112.15963	1377.4081	3.8715600000000845	226.91956	1447.38507	-1649.28396	209.41087	1406.70482	-1553.76626	163.9345	1427.9695	-1483.55814	-42.06708	975.45941	-569.0035499999999	-84.7698	543.00054	-592.17511	-85.75213	541.09365	-676.30928	-38.13774	540.68916	-637.5937	-40.85361	973.6681	-920.2174699999999	-90.89495	541.90264	-900.16627	-95.69106	539.8224	-816.20545	-46.4587	538.78227	-852.78301	-28.60331	500.58675000000005	-636.61136	-122.73419	95.05543000000004	-591.82841	-123.4276	93.32190000000004	-658.10718	-36.34642	499.8933400000001	-853.30307	-123.25425	93.32190000000006	-903.11327	-127.06802	91.41501000000005	-836.95007	-168.38391	5.836230000000038	-621.06734	4.16048	4.115016720200785E-14	-672.03323	9.01438	1.271260000000036	-587.55236	30.51019	-0.11556999999996129	-632.27753	-125.85455	6.876350000000039	-623.49429	121.05844	-0.5200599999999609	-637.42034	-168.49948	3.004790000000053	-866.76685	5.48952	4.27605000000005	-820.53929	7.91647	5.5420040722317406E-14	-905.07795	30.68355	2.0802400000000527	-860.98841	-125.97012	5.142820000000054	-865.61116	121.34736	1.2134700000000527	-858.33032	
134	2.217	-42.99164	1006.83637	-744.5527299999999	30.51019	1115.41337	-599.3981699999999	27.62097	1112.52415	-893.2899199999999	-17.91318	1187.29723	-626.2679399999998	-20.34013	1184.92807	-866.8824199999999	-102.50963	946.04713	-683.1856299999998	-103.7231	944.83365	-803.4928699999999	-115.22221	1029.66124	-744.0904499999999	-75.58207	1128.12595	-745.0149999999999	-63.62069	1244.85055	-745.1883499999999	-63.85182	1351.98293	-744.6682899999998	100.94945	1568.848	-749.1754799999999	-55.18416	1551.97494	-743.2814699999999	-63.85182	1459.05753	-743.8593099999999	94.4198	1441.49106	-750.1578199999999	-48.07667	1608.08365	-741.8368599999999	27.90989	1848.00471	-740.9122999999998	33.57277	1750.52233	-676.2514999999999	13.23264	1756.01186	-811.8716199999999	-29.87456	1755.60737	-736.0006299999999	-26.00301	1591.09502	-555.1930599999998	-42.24044	1572.1995	-938.4773599999999	30.33684	1455.01262	-281.1791699999999	74.07967	1412.25212	-308.6267799999999	44.49403	1468.82311	-1210.52658	101.75843	1444.84256	-1185.21699	88.64136	1373.59432	-45.88085999999991	87.25453	1425.83147	-33.283849999999916	51.02368	1409.47847	-301.0570199999999	131.2285	1412.65661	-1445.94046	110.4261	1460.44436	-1459.11532	81.01381	1434.09465	-1191.28436	127.5303	1393.81888	180.80757000000008	119.61383	1349.96048	85.40543000000008	111.98628	1377.23474	3.8137700000000843	227.09292	1447.44286	-1649.22618	209.52644	1406.7626	-1553.70847	163.99229	1428.02728	-1483.50036	-42.06708	975.45941	-569.0035499999999	-84.7698	543.00054	-592.17511	-85.75213	541.09365	-676.30928	-38.13774	540.68916	-637.53591	-40.85361	973.6681	-920.1596899999998	-90.89495	541.90264	-900.16627	-95.69106	539.76461	-816.14767	-46.40092	538.78227	-852.72523	-28.60331	500.64453000000003	-636.61136	-122.73419	95.05543000000004	-591.82841	-123.4276	93.32190000000004	-658.04939	-36.34642	499.8933400000001	-853.24529	-123.25425	93.32190000000006	-903.11327	-127.06802	91.41501000000005	-836.95007	-168.38391	5.836230000000038	-621.00956	4.16048	4.115016720200785E-14	-672.03323	9.01438	1.271260000000036	-587.55236	30.51019	-0.11556999999996129	-632.27753	-125.79676	6.876350000000039	-623.49429	121.05844	-0.5200599999999609	-637.42034	-168.49948	3.004790000000053	-866.76685	5.48952	4.27605000000005	-820.53929	7.91647	5.5420040722317406E-14	-905.07795	30.68355	2.0802400000000527	-860.98841	-125.97012	5.085030000000053	-865.61116	121.34736	1.1556900000000527	-858.33032	
